<svg xmlns="http://www.w3.org/2000/svg" xmlns:xlink="http://www.w3.org/1999/xlink" width="53.961" height="32.211" viewBox="0 0 53.961 32.211"><defs><path id="a" d="M-12.16-22.116H66.12v78.284H-12.16z"/></defs><clipPath id="b"><use xlink:href="#a" overflow="visible"/></clipPath><g clip-path="url(#b)"><defs><path id="f" d="M-12.16-22.116H66.12v78.284H-12.16z"/></defs><clipPath id="g"><use xlink:href="#f" overflow="visible"/></clipPath><path clip-path="url(#g)" fill="#FFF" d="M52.48 20.007c-4.9 4.06-14.05 6.794-24.53 6.794-11.6 0-21.565-3.343-25.95-8.13L.32 22.99c-.21.4-.32.813-.32 1.232 0 4.413 12.08 7.99 26.98 7.99s26.98-3.577 26.98-7.99c0-.42-.11-.83-.32-1.232l-1.16-2.983z"/></g><g clip-path="url(#b)"><defs><path id="h" d="M6.168 7.62v-.028l-1.034 2.95.008-.004-3.973 10.21c-.205.388-.312.787-.312 1.193 0 4.272 11.696 7.735 26.122 7.735 14.428 0 26.123-3.463 26.123-7.734 0-.405-.107-.805-.31-1.192l-3.996-10.27-1.01-2.886v.006c-.73-3.215-9.765-5.757-20.808-5.757-11.07 0-20.12 2.555-20.812 5.78"/></defs><clipPath id="i"><use xlink:href="#h" overflow="visible"/></clipPath><linearGradient id="j" gradientUnits="userSpaceOnUse" x1="-12.162" y1="56.168" x2="-11.162" y2="56.168" gradientTransform="matrix(52.245 0 0 -52.245 636.23 2950.263)"><stop offset="0" stop-color="#66A1FF"/><stop offset=".075" stop-color="#66A1FF"/><stop offset="1" stop-color="#476FB0"/></linearGradient><path clip-path="url(#i)" fill="url(#j)" d="M.858 1.84h52.245v27.836H.858z"/></g><g clip-path="url(#b)"><defs><path id="k" d="M-12.16-22.116H66.12v78.284H-12.16z"/></defs><clipPath id="l"><use xlink:href="#k" overflow="visible"/></clipPath><path clip-path="url(#l)" fill="#54616D" d="M46.13 8.052c0 2.863-8.572 5.183-19.15 5.183S7.83 10.915 7.83 8.052c0-2.862 8.574-5.182 19.15-5.182s19.15 2.32 19.15 5.182"/></g><g clip-path="url(#b)"><defs><path id="m" d="M23.01 3.336c-.727-.615-1.667-.988-2.694-.988-2.305 0-4.175 1.87-4.175 4.175 0 .145.008.288.023.428l-.34.102c-.6-.335-1.293-.53-2.03-.53-2.306 0-4.176 1.87-4.176 4.176l-.188 2.224c2.892 1.87 9.714 3.182 17.67 3.182 8.196 0 15.185-1.392 17.918-3.35l-.173-2.056c0-2.306-1.87-4.175-4.174-4.175-.776 0-1.5.216-2.12.584l-.26-.082c.018-.165.032-.332.032-.502 0-2.306-1.87-4.175-4.176-4.175-1.14 0-2.17.457-2.923 1.196C30.918 1.538 29.19 0 27.1 0c-2.017 0-3.7 1.432-4.09 3.336"/></defs><clipPath id="n"><use xlink:href="#m" overflow="visible"/></clipPath><linearGradient id="o" gradientUnits="userSpaceOnUse" x1="-12.161" y1="56.168" x2="-11.161" y2="56.168" gradientTransform="matrix(0 -16.105 -16.105 0 931.815 -179.75)"><stop offset="0" stop-color="#7D3300"/><stop offset=".075" stop-color="#7D3300"/><stop offset="1" stop-color="#B04800"/></linearGradient><path clip-path="url(#n)" fill="url(#o)" d="M9.43 0h35.588v16.104H9.428z"/></g><g clip-path="url(#b)"><defs><path id="p" d="M47.784 7.598l-1.654.454c0 2.863-8.574 5.182-19.15 5.182-10.577 0-19.15-2.32-19.15-5.182l-1.662-.43v-.03l-1.034 2.95.007-.004-3.97 10.21c-.205.388-.313.787-.313 1.193 0 4.272 11.696 7.735 26.122 7.735 14.428 0 26.123-3.463 26.123-7.734 0-.405-.107-.805-.31-1.192l-3.996-10.27-1.01-2.886-.003.006z"/></defs><clipPath id="q"><use xlink:href="#p" overflow="visible"/></clipPath><linearGradient id="r" gradientUnits="userSpaceOnUse" x1="-12.161" y1="56.168" x2="-11.161" y2="56.168" gradientTransform="matrix(52.246 0 0 -52.246 636.242 2953.194)"><stop offset="0" stop-color="#66A1FF"/><stop offset=".075" stop-color="#66A1FF"/><stop offset="1" stop-color="#476FB0"/></linearGradient><path clip-path="url(#q)" fill="url(#r)" d="M.857 7.592h52.246v22.084H.857z"/></g><g clip-path="url(#b)"><defs><path id="s" d="M-12.16-22.116H66.12v78.284H-12.16z"/></defs><clipPath id="t"><use xlink:href="#s" overflow="visible"/></clipPath><path clip-path="url(#t)" fill="#FFF" d="M34.986 21.575c.546 0 .987-.443.987-.988s-.44-.988-.987-.988-.987.442-.987.987h-4.056c0-.545-.443-.988-.99-.988-.543 0-.986.442-.986.987s.443.988.987.988c-.544 0-.987.44-.987.986 0 .547.443.99.987.99.546 0 .99-.443.99-.99h4.054c0 .547.44.99.986.99s.987-.443.987-.99c0-.543-.44-.985-.987-.985"/><path clip-path="url(#t)" fill="#AA4500" d="M32.177 20.587c-1.12-1.195-3.695-2.76-6.214-2.76-3.345 0-5.323 1.677-5.323 3.748 0 2.068 1.978 3.747 5.323 3.747 2.52 0 5.095-1.565 6.214-2.76v-1.975z"/></g></svg>