<svg xmlns="http://www.w3.org/2000/svg" xmlns:xlink="http://www.w3.org/1999/xlink" width="184.107" height="184.109" viewBox="0 0 184.107 184.109"><defs><path id="a" d="M-1.928 0h203.41v224.207H-1.928z"/></defs><clipPath id="b"><use xlink:href="#a" overflow="visible"/></clipPath><g clip-path="url(#b)"><defs><circle id="c" cx="92.054" cy="92.055" r="92.055"/></defs><clipPath id="d"><use xlink:href="#c" overflow="visible"/></clipPath><linearGradient id="e" gradientUnits="userSpaceOnUse" x1="-1.928" y1="224.206" x2="-.928" y2="224.206" gradientTransform="matrix(159.469 92.069 92.069 -159.469 -20322.803 35977.609)"><stop offset="0" stop-color="#6E26F9"/><stop offset=".452" stop-color="#7200E0"/><stop offset="1" stop-color="#450096"/></linearGradient><path clip-path="url(#d)" fill="#FF5252" d="M-1.928 184.47c0 18.817 17.852 34.073 39.87 34.073h14.952c22.022 0 39.87-15.256 39.87-34.074v-38.337c0-18.816-17.848-34.076-39.87-34.076h-14.95c-22.02 0-39.872 15.26-39.872 34.076v38.336z"/></g><g clip-path="url(#b)"><defs><circle id="f" cx="92.054" cy="92.055" r="92.055"/></defs><clipPath id="g"><use xlink:href="#f" overflow="visible"/></clipPath><g opacity=".2" clip-path="url(#g)"><defs><path id="h" d="M14.546 112.057h78.22v106.486h-78.22z"/></defs><clipPath id="i"><use xlink:href="#h" overflow="visible"/></clipPath><path clip-path="url(#i)" fill="#231F20" d="M52.896 112.057H45.35v99.994H14.545c6.573 4.08 14.653 6.493 23.4 6.493h14.95c22.02 0 39.87-15.256 39.87-34.074v-38.337c0-18.817-17.85-34.076-39.87-34.076"/></g><path clip-path="url(#g)" fill="#FFF" d="M62.49 113.01v15.193L45.54 113.01M28.585 128.203V113.01H45.54"/><path clip-path="url(#g)" fill="#231F20" d="M76.12 73.3c0 1.063-.862 1.927-1.927 1.927-1.066 0-1.93-.864-1.93-1.928s.864-1.93 1.93-1.93c1.064 0 1.928.865 1.928 1.93"/><path clip-path="url(#g)" fill="#F4CFB3" d="M72.927 88.672v-5.45h12.166v12.846c0 4.086-3.312 7.4-7.398 7.4h-12.33V88.67h7.562z"/><path clip-path="url(#g)" fill="#F4CFB3" d="M46.92 52.234h38.173v41.11H72.957v10.122H62.49v9.543H28.584V52.233"/><path clip-path="url(#g)" fill="#F4CFB3" d="M92.765 87.31l-7.672-18.75-15.965 18.75"/><path clip-path="url(#g)" fill="#603913" d="M95.263 45.926l-4.27 15.32H53.2l-2.384 5.295h-3.82c-4.266 0-7.725 3.46-7.725 7.728 0 3.16 1.9 5.87 4.616 7.07L39.27 91.19H26.83V45.926h68.433z"/><path clip-path="url(#g)" fill="#603913" d="M50.333 67.607c-1.115-.674-2.42-1.066-3.818-1.066v-.962h4.734l-.917 2.03z"/><path clip-path="url(#g)" fill="#231F20" d="M76.12 73.3c0 1.3-1.054 2.354-2.356 2.354-1.3 0-2.354-1.054-2.354-2.355s1.053-2.356 2.354-2.356c1.3 0 2.357 1.054 2.357 2.355"/><path clip-path="url(#g)" fill="#231F20" d="M76.677 73.3c0 1.608-1.305 2.913-2.914 2.913S70.85 74.908 70.85 73.3s1.304-2.915 2.913-2.915 2.914 1.305 2.914 2.914"/><path clip-path="url(#g)" fill="#FF5252" d="M109.494 129.297v13.13c0 1.962 1.592 3.55 3.55 3.55 1.962 0 3.55-1.588 3.55-3.55v-13.13h-7.1z"/><path clip-path="url(#g)" fill="#FFF" d="M172.828 134.86v89.347h-37.02V134.86h-26.353v-30.792"/><path clip-path="url(#g)" fill="#8B5E3C" d="M165.77 104.234l28.532 119.973h-46.806l-11.688-51.156V134.86h-8.72l-6.995-30.626"/><path clip-path="url(#g)" fill="#FFF" d="M163.09 104.068v7.52c-2.147 9.878-8.347 18.244-16.77 23.27h-36.865c-10.49-6.26-17.53-17.7-17.59-30.79h71.226z"/><path clip-path="url(#g)" fill="#231F20" d="M92.867 112.38c-.643-2.67-.988-5.45-1.002-8.31h7.563c-1.772 3.082-3.987 5.883-6.56 8.31"/><path clip-path="url(#g)" fill="#FF5252" d="M135.808 142.77h39.13l-1.835-7.91h-37.295"/><path clip-path="url(#g)" fill="#C49A6C" d="M165.78 104.068l7.323 30.79h-45.978l-7.024-30.79"/><path clip-path="url(#g)" fill="#603913" d="M169.73 97.48v19.336c0 8.512-6.9 15.412-15.41 15.412s-15.408-6.9-15.408-15.412V97.48h30.818zM194.302 224.207h-46.75c.174-21.912 15.54-40.203 36.084-44.857l10.666 44.857z"/><path clip-path="url(#g)" fill="none" stroke="#231F20" stroke-width="1.987" stroke-linecap="round" stroke-linejoin="round" stroke-miterlimit="10" d="M128.736 112.158c.24-1.346 1.408-2.367 2.824-2.367 1.414 0 2.584 1.022 2.826 2.368"/></g><g clip-path="url(#b)"><defs><path id="j" d="M-1.928 0h203.41v224.207H-1.928z"/></defs><clipPath id="k"><use xlink:href="#j" overflow="visible"/></clipPath><path clip-path="url(#k)" fill="#231F20" d="M85.074 93.312c-2.026 1.225-4.703.8-6.233-1.09-.344-.426-.968-.492-1.395-.147-.425.344-.492.97-.147 1.395 1.907 2.357 5.073 3.103 7.758 2.06.042-.707.042-1.738.018-2.218"/><path clip-path="url(#k)" fill="#FF5252" d="M153.787 55.81c-3.73-3.617-9.683-3.526-13.3.203l-4.134 4.262-4.345-4.214c-3.73-3.617-9.684-3.525-13.3.203-3.617 3.73-3.526 9.684.203 13.3l10.818 10.493 5.118 4.963 1.912 1.855 6.737-6.947 10.492-10.818c3.62-3.73 3.528-9.683-.2-13.3"/><path clip-path="url(#k)" fill="#D24646" d="M140.446 56.013l-4.125 4.253.307 26.52.093.09 6.736-6.947 10.493-10.82c3.616-3.73 3.525-9.683-.204-13.3-3.73-3.617-9.683-3.526-13.3.203"/></g></svg>