<?xml version="1.0" standalone="no"?>
<!DOCTYPE svg PUBLIC "-//W3C//DTD SVG 20010904//EN"
 "http://www.w3.org/TR/2001/REC-SVG-20010904/DTD/svg10.dtd">
<svg version="1.0" xmlns="http://www.w3.org/2000/svg"
 width="1271.000000pt" height="1280.000000pt" viewBox="0 0 1271.000000 1280.000000"
 preserveAspectRatio="xMidYMid meet">
<g transform="translate(0.000000,1280.000000) scale(0.100000,-0.100000)"
fill="#000000" stroke="none">
<path d="M12160 12789 c-19 -5 -150 -20 -290 -34 -140 -14 -478 -48 -750 -76
-607 -61 -2176 -219 -2944 -296 -458 -46 -569 -60 -574 -72 -7 -19 78 -883 88
-894 4 -5 369 28 811 72 2033 205 2397 241 2435 247 25 3 44 2 48 -4 6 -11
-3099 -3162 -3115 -3162 -5 0 -74 48 -153 108 -255 188 -502 338 -791 478
-914 443 -1933 587 -2925 413 -803 -141 -1583 -497 -2221 -1014 -967 -784
-1598 -1950 -1738 -3214 -42 -375 -47 -500 -27 -744 44 -557 122 -943 277
-1379 383 -1070 1091 -1935 2064 -2523 151 -91 520 -272 695 -341 424 -166
863 -274 1300 -318 423 -43 534 -44 950 -1 1484 153 2808 969 3591 2213 395
626 634 1311 724 2072 22 186 31 638 16 837 -72 951 -411 1843 -990 2606
l-112 148 75 80 c64 68 1978 2007 2787 2824 142 143 261 256 265 252 7 -7 -3
-141 -46 -622 -11 -115 -29 -316 -40 -445 -11 -129 -27 -307 -35 -395 -8 -88
-26 -290 -40 -450 -14 -159 -48 -535 -74 -835 -27 -300 -46 -548 -42 -551 10
-10 902 -85 908 -76 2 4 27 256 54 560 26 304 60 683 74 842 40 449 72 809
105 1185 40 448 66 744 90 1010 11 118 29 323 40 455 12 132 29 303 37 380 10
82 18 250 20 408 l4 267 -258 -1 c-142 -1 -274 -5 -293 -10z m-6860 -4099
c1541 -209 2763 -1225 3233 -2685 132 -413 182 -741 181 -1195 0 -310 -14
-456 -65 -711 -212 -1066 -834 -1987 -1719 -2545 -522 -330 -1076 -525 -1700
-600 -202 -24 -612 -24 -810 0 -1661 203 -2946 1317 -3364 2918 -85 323 -119
596 -119 953 -1 261 7 363 43 595 131 833 539 1621 1136 2200 287 278 589 490
964 679 439 220 893 354 1355 400 61 6 126 13 145 15 19 2 154 3 300 1 198 -3
304 -9 420 -25z"/>
</g>
</svg>
