<?xml version="1.0" standalone="no"?>
<!DOCTYPE svg PUBLIC "-//W3C//DTD SVG 20010904//EN"
 "http://www.w3.org/TR/2001/REC-SVG-20010904/DTD/svg10.dtd">
<svg version="1.0" xmlns="http://www.w3.org/2000/svg"
 width="785.000000pt" height="1280.000000pt" viewBox="0 0 785.000000 1280.000000"
 preserveAspectRatio="xMidYMid meet">
<g transform="translate(0.000000,1280.000000) scale(0.100000,-0.100000)"
fill="#000000" stroke="none">
<path d="M3869 12796 c-2 -2 -74 -9 -159 -16 -706 -51 -1293 -249 -1860 -625
-752 -500 -1334 -1265 -1628 -2140 -94 -281 -166 -613 -192 -890 -6 -66 -15
-153 -21 -193 -12 -93 -12 -286 0 -388 6 -43 15 -128 21 -189 45 -450 182
-908 391 -1303 177 -335 367 -590 654 -878 519 -519 1181 -934 1830 -1144 72
-23 290 -80 485 -126 195 -47 363 -87 374 -90 21 -7 21 -9 -5 -1169 -19 -866
-25 -1001 -48 -1088 -52 -199 -164 -307 -348 -339 -60 -10 -120 -9 -359 6
-472 31 -659 3 -772 -114 -57 -58 -75 -119 -70 -234 3 -77 8 -99 33 -144 92
-168 313 -221 875 -209 318 7 455 -2 530 -34 79 -34 85 -50 85 -219 0 -80 -6
-252 -14 -384 -27 -466 6 -685 123 -801 56 -55 125 -85 194 -85 57 0 223 35
263 55 43 22 96 72 115 107 37 71 45 141 54 453 9 333 19 462 51 650 25 150
46 197 106 232 91 53 166 63 548 73 193 5 384 12 425 15 247 20 388 89 421
207 7 24 13 88 13 143 1 79 -3 107 -18 135 -24 46 -64 88 -101 107 -84 44
-113 47 -525 48 -448 1 -477 4 -630 77 -147 71 -237 183 -279 351 -15 60 -20
139 -27 482 -18 840 -5 1085 71 1350 50 174 136 311 236 377 30 19 101 52 159
73 314 111 1039 514 1535 853 588 403 851 678 1070 1120 151 304 243 589 305
943 17 96 30 204 60 519 13 132 13 310 0 437 -5 54 -14 163 -20 243 -52 691
-262 1293 -651 1866 -248 365 -639 770 -1057 1093 -64 50 -157 125 -207 167
-386 325 -883 529 -1435 589 -80 8 -186 20 -237 25 -90 10 -356 14 -364 6z
m246 -656 c498 -46 1024 -249 1530 -591 189 -127 281 -204 455 -379 469 -468
815 -1074 970 -1700 39 -158 46 -204 67 -445 13 -150 18 -307 17 -550 0 -300
-2 -356 -22 -480 -41 -264 -112 -505 -197 -675 -178 -354 -589 -799 -1047
-1132 -373 -273 -863 -530 -1213 -637 -211 -64 -288 -75 -540 -75 -140 -1
-267 4 -325 12 -874 123 -1802 557 -2345 1097 -150 148 -233 249 -346 419
-221 332 -357 704 -415 1131 -24 179 -24 539 0 730 80 636 319 1254 722 1868
554 843 1159 1251 2019 1362 66 8 163 22 215 30 162 25 296 30 455 15z"/>
</g>
</svg>
